<?xml version="1.0" standalone="no"?>
<!DOCTYPE svg PUBLIC "-//W3C//DTD SVG 20010904//EN"
 "http://www.w3.org/TR/2001/REC-SVG-20010904/DTD/svg10.dtd">
<svg version="1.0" xmlns="http://www.w3.org/2000/svg"
 width="300.000000pt" height="145.000000pt" viewBox="0 0 300.000000 145.000000"
 preserveAspectRatio="xMidYMid meet">
<metadata>
Created by potrace 1.10, written by Peter Selinger 2001-2011
</metadata>
<g transform="translate(0.000000,145.000000) scale(0.100000,-0.100000)"
fill="#ffffff" stroke="none">
<path d="M252 1378 c-7 -7 -12 -22 -12 -35 0 -39 -69 -57 -125 -31 -31 14 -45
3 -23 -18 25 -25 97 -28 138 -7 32 16 35 21 32 56 -2 20 1 37 7 37 5 0 11 -17
13 -37 3 -35 6 -38 37 -41 51 -5 79 5 117 43 41 42 20 49 -31 11 -29 -22 -52
-30 -82 -27 -7 0 -18 13 -25 28 -15 31 -29 38 -46 21z"/>
<path d="M451 1334 c-24 -31 -27 -64 -7 -102 25 -48 51 -65 91 -58 22 4 35 3
35 -4 0 -5 -11 -10 -23 -10 -30 0 -55 -27 -63 -68 l-6 -32 272 0 272 0 -3
-102 c-2 -57 -2 -161 -1 -232 l2 -128 27 7 c15 3 44 22 66 41 l38 35 29 -21
c26 -19 33 -20 57 -8 15 7 34 26 41 41 l13 28 22 -28 c12 -15 28 -33 37 -40
21 -16 97 -9 120 12 20 18 21 17 44 -4 21 -19 27 -21 44 -10 32 20 42 54 42
146 0 63 4 91 15 103 27 30 -5 43 -112 45 -82 2 -99 -1 -114 -16 -11 -11 -19
-28 -19 -39 0 -29 -9 -25 -47 20 -31 36 -39 40 -79 40 -55 0 -79 -12 -104 -52
l-18 -30 -12 23 c-7 13 -24 36 -37 51 -16 16 -26 40 -28 65 -3 52 -12 70 -38
77 -12 3 -124 6 -249 6 -152 0 -229 4 -234 11 -3 6 9 24 27 40 33 28 33 29 15
44 -11 8 -29 15 -41 15 -12 0 -32 11 -45 25 -22 24 -23 29 -13 78 6 28 10 53
8 55 -1 2 -12 -9 -24 -24z m614 -426 c2 -7 14 -47 26 -88 l22 -75 24 80 c14
44 29 85 35 90 12 12 8 -4 -35 -137 -28 -88 -47 -122 -47 -84 0 7 -13 57 -30
111 -16 54 -30 101 -30 106 0 14 30 11 35 -3z m165 -108 c0 -114 -1 -120 -20
-120 -20 0 -20 5 -18 120 3 107 5 120 20 120 16 0 18 -12 18 -120z m110 7 c30
-62 56 -115 58 -119 2 -5 -6 -8 -17 -8 -18 0 -32 22 -76 114 -30 63 -55 117
-55 120 0 3 8 6 18 5 12 0 34 -34 72 -112z m57 -24 c-2 -27 -3 -5 -3 47 0 52
1 74 3 48 2 -27 2 -69 0 -95z m53 17 c0 -108 -2 -120 -17 -120 -16 0 -18 12
-18 120 0 108 2 120 18 120 15 0 17 -12 17 -120z m143 113 l-33 -4 0 -115 c0
-107 -1 -114 -20 -114 -19 0 -20 7 -20 114 l0 115 -32 4 c-18 2 5 4 52 4 47 0
70 -2 53 -4z m-333 -153 c0 -47 -4 -80 -10 -80 -5 0 -10 19 -10 43 0 45 10
117 16 117 2 0 4 -36 4 -80z m-182 -98 c2 -7 -3 -12 -12 -12 -9 0 -16 7 -16
16 0 17 22 14 28 -4z"/>
<path d="M371 1289 c-13 -5 -39 -7 -57 -3 -35 6 -43 -3 -22 -24 21 -21 72 -14
98 13 25 26 20 30 -19 14z"/>
<path d="M65 1263 c4 -16 9 -47 12 -70 5 -40 3 -43 -36 -70 -22 -15 -40 -32
-41 -38 0 -5 22 -25 49 -44 59 -40 76 -74 67 -138 l-7 -48 20 25 c11 14 21 35
21 48 0 35 -25 86 -56 116 -16 14 -23 26 -15 26 20 0 72 -60 78 -92 7 -33 19
-44 26 -24 7 18 -10 83 -23 91 -12 8 -13 25 -1 25 5 0 18 -19 29 -42 19 -41
20 -41 31 -19 10 18 9 27 -3 47 -15 22 -21 24 -94 20 -42 -1 -83 -1 -90 2 -20
7 -14 24 7 17 46 -14 84 73 62 145 -14 46 -48 67 -36 23z"/>
<path d="M244 1274 c-12 -8 -43 -16 -70 -17 l-49 -2 -5 -66 c-3 -36 -11 -73
-19 -82 -12 -15 -11 -17 6 -17 48 0 72 89 37 138 -15 21 -14 22 10 12 34 -12
80 -3 102 21 22 24 15 31 -12 13z"/>
<path d="M402 1268 c-17 -17 -15 -38 8 -75 14 -24 27 -33 47 -33 l27 0 -28 29
c-16 16 -31 43 -35 61 -5 25 -9 28 -19 18z"/>
<path d="M246 1234 c-11 -8 -31 -14 -44 -14 -21 0 -22 -2 -12 -15 25 -30 84
-13 78 23 -3 19 -5 19 -22 6z"/>
<path d="M290 1225 c0 -15 26 -20 54 -9 28 11 17 24 -19 24 -24 0 -35 -5 -35
-15z"/>
<path d="M371 1203 c-1 -17 6 -39 15 -47 20 -21 40 -10 22 11 -7 9 -18 28 -25
42 l-11 26 -1 -32z"/>
<path d="M175 1162 c-1 -21 -5 -45 -10 -56 -7 -16 -6 -17 13 -7 25 13 31 71
10 89 -10 8 -13 2 -13 -26z"/>
<path d="M290 1191 c0 -19 22 -23 38 -7 15 15 14 16 -11 16 -15 0 -27 -4 -27
-9z"/>
<path d="M242 1173 c-26 -22 -42 -78 -21 -71 8 3 13 17 12 32 -2 29 8 33 30
12 12 -13 14 -10 15 15 1 33 -7 36 -36 12z"/>
<path d="M347 1183 c-11 -10 -8 -41 4 -49 6 -3 14 -2 18 2 9 11 -13 57 -22 47z"/>
<path d="M450 1130 c-11 -11 -20 -24 -20 -29 0 -5 -3 -16 -6 -25 -4 -11 0 -16
14 -16 14 0 23 12 34 45 16 49 9 56 -22 25z"/>
<path d="M402 1123 c-29 -26 -39 -63 -15 -63 12 0 22 12 30 37 14 45 12 49
-15 26z"/>
<path d="M347 1113 c-10 -10 -8 -53 2 -53 8 0 20 32 21 53 0 9 -14 9 -23 0z"/>
<path d="M250 1084 c0 -14 3 -14 15 -4 8 7 15 14 15 16 0 2 -7 4 -15 4 -8 0
-15 -7 -15 -16z"/>
<path d="M222 1070 c15 -24 33 -27 24 -4 -3 9 -6 18 -6 20 0 2 -7 4 -15 4 -13
0 -13 -3 -3 -20z"/>
<path d="M283 1083 c-23 -9 -14 -20 18 -21 25 -1 28 2 18 14 -12 15 -16 16
-36 7z"/>
<path d="M307 1043 c-13 -13 -7 -21 13 -16 11 3 20 9 20 14 0 10 -24 12 -33 2z"/>
<path d="M830 1014 c-42 -36 -131 -190 -177 -307 -21 -53 -41 -97 -46 -97 -4
0 -15 17 -25 38 -9 20 -20 39 -23 42 -3 3 -24 44 -47 92 -24 48 -52 94 -63
102 -30 20 -16 35 28 29 36 -5 37 -4 21 13 -15 15 -22 16 -60 5 -55 -16 -118
-57 -118 -76 0 -22 -18 -18 -25 5 -3 11 -11 20 -16 20 -5 0 -2 -11 7 -25 9
-14 19 -25 23 -25 4 0 18 11 31 25 31 33 38 32 37 -8 -1 -21 20 -73 60 -152
33 -66 80 -164 103 -218 49 -113 72 -132 117 -97 14 11 23 20 20 20 -9 0 30
163 47 195 9 17 16 36 16 42 0 23 89 207 124 258 12 16 33 43 48 60 29 31 36
59 17 70 -6 4 -10 1 -8 -6 3 -27 -1 -39 -15 -39 -54 0 -230 -376 -254 -544 -6
-41 -11 -51 -26 -51 -15 0 -27 19 -51 80 -17 44 -64 144 -103 222 -40 79 -72
152 -72 162 0 23 11 33 27 23 13 -9 131 -236 163 -315 l24 -58 18 67 c54 194
199 455 261 467 19 4 19 4 -5 6 -16 0 -39 -10 -58 -25z"/>
<path d="M420 1023 c0 -11 11 -25 32 -41 15 -12 16 -11 9 15 -7 25 -41 47 -41
26z"/>
<path d="M230 1005 c-12 -14 -12 -18 1 -25 10 -7 15 -5 17 5 6 28 -3 38 -18
20z"/>
<path d="M316 1004 c-32 -31 -13 -51 22 -24 13 11 31 20 39 20 8 0 11 5 8 10
-9 15 -52 12 -69 -6z"/>
<path d="M480 996 c0 -30 41 -78 48 -56 3 7 -3 19 -12 25 -9 7 -16 19 -16 28
0 9 -4 19 -10 22 -6 4 -10 -5 -10 -19z"/>
<path d="M270 991 c0 -11 5 -23 10 -26 6 -3 10 3 10 14 0 11 -4 23 -10 26 -5
3 -10 -3 -10 -14z"/>
<path d="M353 970 c-29 -17 -53 -63 -40 -76 2 -3 21 6 42 20 20 14 53 28 72
32 l36 7 -24 18 c-31 24 -46 24 -86 -1z"/>
<path d="M212 963 c-7 -3 -16 -12 -21 -22 -8 -14 -5 -17 25 -17 25 0 34 4 34
17 0 18 -18 29 -38 22z"/>
<path d="M1731 923 c-17 -16 -33 -39 -36 -53 -9 -36 31 -91 73 -102 22 -6 32
-14 32 -28 0 -26 -18 -25 -47 2 -22 21 -24 21 -17 3 21 -58 85 -76 106 -30 17
38 -3 75 -40 75 -34 0 -72 36 -72 68 0 35 35 62 78 62 43 0 73 -24 71 -56 0
-14 -2 -15 -6 -4 -20 53 -86 70 -103 25 -14 -36 3 -75 33 -75 40 0 79 -37 75
-73 -7 -72 -110 -90 -145 -24 -9 18 -18 27 -21 19 -13 -41 73 -90 142 -79 17
3 39 0 50 -5 14 -8 24 -4 45 15 l26 26 27 -24 c24 -21 35 -23 93 -20 63 5 65
4 65 -19 0 -37 -19 -45 -131 -51 -57 -3 -111 -6 -119 -6 -8 -1 -34 0 -58 2
-33 2 -48 -3 -67 -21 l-25 -23 -26 24 c-25 24 -28 24 -226 25 -194 0 -200 0
-214 -21 -21 -32 -22 -107 -2 -137 15 -23 22 -25 80 -22 35 2 70 3 78 3 8 0
69 -1 135 -2 112 -2 121 -1 148 22 l28 24 22 -21 c19 -18 36 -21 112 -22 234
-4 281 -6 293 -14 9 -6 11 -20 7 -47 -8 -49 11 -60 54 -30 37 27 63 27 87 0
38 -42 52 -43 94 -5 47 42 75 51 138 42 l47 -6 -28 25 c-21 19 -35 24 -55 19
-50 -12 -124 -55 -129 -75 -7 -26 -18 -24 -31 5 -12 27 -71 51 -106 42 -12 -3
-28 -17 -34 -31 -6 -14 -16 -25 -22 -25 -14 0 -13 11 4 29 27 31 25 91 -4 91
-16 0 -19 5 -13 30 3 17 3 30 0 30 -4 0 -13 -13 -22 -30 -14 -28 -20 -30 -70
-30 -53 0 -55 1 -55 28 l-1 27 -15 -28 c-13 -25 -20 -28 -57 -25 -32 2 -44 9
-56 29 -20 35 -7 75 29 94 34 18 72 6 88 -29 10 -20 11 -20 11 7 1 29 11 32
79 28 29 -2 34 2 48 34 8 20 14 49 12 63 -2 21 -8 26 -33 27 -16 1 -42 2 -57
3 l-28 2 0 120 0 120 78 -2 c77 -2 77 -2 14 -5 l-63 -4 3 -52 c3 -49 4 -52 31
-52 21 -1 26 3 21 15 -15 35 -15 47 0 59 29 25 46 6 46 -52 0 -30 -3 -56 -6
-59 -8 -9 -44 3 -38 13 3 5 -9 9 -26 9 -31 0 -31 0 -28 -47 3 -48 3 -48 41
-51 41 -4 45 2 20 30 -21 24 -9 36 15 15 10 -10 25 -17 32 -17 7 0 10 -3 7 -7
-4 -3 -2 -12 4 -20 9 -10 8 -13 -5 -13 -14 0 -16 -6 -11 -32 4 -23 0 -45 -14
-71 -15 -29 -17 -45 -11 -63 13 -34 23 -30 15 6 -6 26 -4 30 14 30 27 0 44 41
34 84 -5 17 -7 88 -5 159 l3 127 82 -2 82 -2 -67 -3 -68 -4 0 -56 c0 -54 1
-55 25 -49 14 4 25 2 25 -4 0 -5 -11 -10 -25 -10 -23 0 -25 -4 -25 -40 l0 -40
39 20 c38 19 40 21 34 57 -4 21 -13 43 -21 49 -8 6 -13 19 -11 29 6 28 89 42
107 18 17 -23 15 -88 -3 -103 -12 -10 -18 -6 -35 22 l-20 33 0 -42 0 -43 55 0
55 0 0 79 0 80 -32 4 c-18 2 3 5 46 5 62 2 77 5 68 14 -11 11 -41 12 -147 7
-16 -1 -110 1 -207 4 -162 5 -179 4 -200 -12 -21 -18 -23 -18 -50 2 -23 17
-32 19 -53 9 -23 -10 -45 -10 -112 4 -15 3 -33 -5 -52 -23z m201 -15 c1 -7 2
-33 2 -57 l1 -45 43 -2 42 -2 0 59 c0 46 3 59 15 59 13 0 15 -20 15 -120 0
-100 -2 -120 -15 -120 -12 0 -15 13 -15 55 l0 55 -46 0 -47 0 7 -55 c6 -51 5
-55 -14 -55 -19 0 -20 6 -20 120 0 100 3 120 15 120 8 0 16 -6 17 -12z m-88
-44 c8 -20 -1 -34 -20 -34 -8 0 -14 10 -14 25 0 28 24 34 34 9z m-140 -325
c18 -14 26 -30 26 -51 0 -48 -25 -68 -82 -68 l-48 0 0 64 c0 53 3 65 18 69 37
10 60 6 86 -14z m190 6 c18 -14 17 -15 -19 -12 -33 2 -41 -2 -54 -24 -13 -24
-13 -29 3 -54 16 -24 22 -26 53 -20 24 4 33 3 28 -4 -3 -6 -24 -11 -45 -11
-67 0 -93 68 -45 115 27 28 51 31 79 10z m-554 -25 c0 -23 4 -30 20 -30 16 0
20 7 20 30 0 18 5 30 13 30 10 0 13 -14 9 -55 -6 -69 10 -72 28 -4 8 27 17 52
21 55 4 2 16 -24 27 -58 l20 -63 1 63 1 62 39 0 c31 0 41 -4 46 -20 4 -12 2
-27 -5 -35 -7 -9 -8 -15 0 -20 12 -8 13 -55 1 -55 -5 0 -11 12 -13 28 -2 18
-9 28 -24 30 -18 3 -20 -1 -16 -28 4 -28 2 -30 -25 -30 -26 0 -31 5 -43 43
l-13 42 -14 -42 c-10 -31 -20 -43 -34 -43 -14 0 -19 7 -19 30 0 23 -4 30 -20
30 -16 0 -20 -7 -20 -30 0 -17 -5 -30 -12 -30 -9 0 -13 20 -13 65 0 45 4 65
13 65 7 0 12 -13 12 -30z"/>
<path d="M1620 485 c0 -54 0 -55 29 -55 36 0 61 23 61 55 0 32 -25 55 -61 55
-29 0 -29 -1 -29 -55z"/>
<path d="M1530 515 c0 -20 4 -26 18 -23 9 2 17 12 17 23 0 11 -8 21 -17 23
-14 3 -18 -3 -18 -23z"/>
<path d="M2723 928 c-22 -21 -23 -21 -42 -4 -40 36 -72 -2 -95 -111 -19 -93
-40 -130 -31 -57 5 35 2 59 -6 73 -11 16 -11 27 -2 51 11 29 10 30 -18 30
l-29 0 0 -72 c1 -73 1 -73 18 -45 9 15 20 27 24 27 13 0 9 -10 -12 -37 -29
-38 -26 -82 11 -126 26 -31 36 -37 70 -37 24 0 38 -4 34 -10 -3 -5 -17 -10
-31 -10 -33 0 -54 -49 -54 -126 0 -50 3 -59 31 -85 41 -39 49 -29 15 19 -42
61 -31 143 25 174 39 23 35 49 -9 60 -18 5 -32 12 -30 16 26 51 32 62 39 62 4
0 10 -9 14 -20 13 -41 50 -58 116 -54 33 3 77 9 97 13 l37 9 -40 1 c-22 1 -56
4 -75 7 l-35 6 -3 119 c-3 115 -3 119 17 119 20 0 21 -5 21 -115 l0 -115 62 0
c65 0 71 8 16 19 l-33 7 -5 96 c-4 76 -9 100 -24 117 -24 27 -46 27 -73 -1z
m-34 -118 c16 -52 32 -103 36 -112 5 -14 2 -18 -12 -18 -16 0 -24 16 -43 78
-13 42 -27 82 -32 88 -8 11 -7 19 8 62 7 20 5 25 43 -98z m-78 -60 c-12 -39
-26 -70 -31 -70 -5 0 -5 11 0 28 5 15 16 52 26 82 9 30 19 49 22 42 2 -7 -6
-44 -17 -82z"/>
<path d="M270 929 c0 -9 7 -22 15 -29 19 -16 19 0 0 26 -12 16 -14 16 -15 3z"/>
<path d="M153 880 c-9 -16 -22 -30 -27 -30 -5 0 -7 -3 -3 -6 3 -4 22 4 42 16
31 19 39 20 46 9 5 -8 9 -138 9 -290 0 -222 3 -279 14 -295 13 -18 32 -19 288
-24 l273 -5 -2 -55 c-2 -41 0 -49 6 -34 5 12 14 25 20 29 12 7 15 54 5 79 -5
14 -41 16 -293 16 l-286 0 3 310 3 310 -40 0 c-34 0 -43 -5 -58 -30z"/>
<path d="M2360 731 c0 -4 4 -12 9 -19 11 -19 95 -12 99 8 2 12 -9 15 -53 16
-30 0 -55 -2 -55 -5z"/>
<path d="M2325 720 c-3 -5 -15 -10 -25 -10 -10 0 -22 -5 -25 -10 -4 -7 7 -10
32 -9 30 2 39 7 40 21 2 19 -12 24 -22 8z"/>
<path d="M2488 682 c-10 -2 -18 -7 -18 -11 0 -13 31 -51 51 -61 26 -14 48 -1
26 15 -9 7 -22 23 -29 36 -8 15 -20 23 -30 21z"/>
<path d="M2287 673 l-38 -4 27 -21 c24 -20 29 -20 52 -7 26 15 32 33 10 35 -7
0 -30 -1 -51 -3z"/>
<path d="M2370 670 c0 -5 13 -10 29 -10 17 0 33 5 36 10 4 6 -8 10 -29 10 -20
0 -36 -4 -36 -10z"/>
<path d="M2451 657 c-1 -39 16 -67 41 -67 l21 0 -21 23 c-11 12 -25 33 -31 47
l-10 25 0 -28z"/>
<path d="M1131 642 c-24 -35 -27 -72 -7 -110 25 -48 50 -64 90 -57 24 5 36 3
36 -4 0 -6 -10 -11 -22 -11 -49 0 -68 -36 -68 -125 0 -58 3 -69 26 -90 23 -22
44 -32 44 -22 0 2 -11 18 -25 37 -19 25 -25 46 -25 83 0 46 4 53 41 88 35 32
40 41 29 54 -7 8 -22 15 -34 15 -28 0 -65 26 -75 53 -5 13 -2 39 7 65 18 53
11 63 -17 24z"/>
<path d="M928 639 c-5 -16 -20 -31 -38 -39 -28 -12 -45 -11 -99 6 -18 5 -23 4
-19 -6 10 -32 111 -35 151 -5 12 9 17 23 15 42 l-3 28 -7 -26z"/>
<path d="M960 633 c0 -13 5 -23 10 -23 13 0 13 11 0 30 -8 12 -10 11 -10 -7z"/>
<path d="M2255 627 c4 -15 2 -40 -3 -57 -10 -28 -10 -29 8 -20 25 13 27 72 4
91 -13 11 -14 9 -9 -14z"/>
<path d="M2370 633 c0 -7 6 -13 14 -13 7 0 18 6 24 13 8 9 4 12 -14 12 -13 0
-24 -6 -24 -12z"/>
<path d="M2330 625 c-23 -12 -23 -14 -7 -21 20 -7 42 8 36 24 -3 7 -13 6 -29
-3z"/>
<path d="M2427 634 c-4 -4 -7 -18 -7 -31 0 -13 -4 -22 -9 -18 -5 3 -12 1 -16
-5 -7 -11 8 -12 41 -2 18 6 19 10 9 35 -6 15 -14 24 -18 21z"/>
<path d="M2370 588 c0 -12 1 -19 3 -17 1 2 9 12 16 22 12 14 11 17 -3 17 -10
0 -16 -8 -16 -22z"/>
<path d="M1045 591 c-36 -8 -50 -45 -15 -39 13 2 29 13 38 26 8 12 13 21 11
21 -2 -1 -17 -4 -34 -8z"/>
<path d="M2300 593 c0 -6 -3 -18 -6 -27 -3 -9 -1 -16 5 -16 17 0 25 30 12 43
-8 8 -11 8 -11 0z"/>
<path d="M740 582 c0 -6 8 -24 17 -40 22 -39 9 -102 -24 -117 -26 -11 -29 -21
-9 -28 32 -13 69 67 59 128 -5 31 -43 82 -43 57z"/>
<path d="M924 575 c-10 -8 -38 -15 -62 -15 -26 0 -41 -4 -37 -10 11 -17 81
-11 106 9 28 23 22 38 -7 16z"/>
<path d="M962 578 c6 -18 28 -21 28 -4 0 9 -7 16 -16 16 -9 0 -14 -5 -12 -12z"/>
<path d="M2333 575 c-8 -22 6 -33 17 -15 13 20 12 30 0 30 -6 0 -13 -7 -17
-15z"/>
<path d="M2524 565 c-25 -39 -30 -102 -9 -125 10 -11 21 -20 24 -20 3 0 6 26
6 58 0 31 3 69 8 85 9 34 -7 36 -29 2z"/>
<path d="M1076 563 c-15 -46 20 -103 62 -103 l26 0 -26 28 c-15 15 -33 43 -41
62 -13 33 -14 34 -21 13z"/>
<path d="M2470 561 c-15 -29 -12 -77 5 -91 13 -11 15 -7 15 23 0 20 4 47 10
61 7 21 6 26 -5 26 -8 0 -19 -9 -25 -19z"/>
<path d="M2430 555 c-7 -8 -10 -24 -7 -35 4 -14 0 -20 -12 -20 -10 0 -17 8
-17 19 0 11 4 17 8 15 4 -3 8 2 8 10 0 21 -26 21 -34 0 -3 -9 -2 -23 3 -31 4
-9 6 -24 4 -34 -5 -16 -2 -17 21 -6 16 8 30 27 39 55 15 43 9 54 -13 27z"/>
<path d="M926 534 c-11 -8 -31 -14 -44 -14 -21 0 -22 -2 -12 -15 24 -28 86 -7
79 27 -4 15 -6 15 -23 2z"/>
<path d="M960 535 c0 -8 2 -15 4 -15 2 0 11 -3 20 -6 23 -9 20 13 -4 26 -16 9
-20 8 -20 -5z"/>
<path d="M802 496 c0 -24 -8 -58 -16 -75 -15 -27 -15 -31 -1 -31 44 0 68 69
43 125 -17 37 -26 31 -26 -19z"/>
<path d="M1010 524 c0 -14 3 -14 15 -4 8 7 15 14 15 16 0 2 -7 4 -15 4 -8 0
-15 -7 -15 -16z"/>
<path d="M1950 525 c-27 -32 -8 -95 29 -95 26 0 41 21 41 55 0 50 -42 74 -70
40z"/>
<path d="M2075 520 c-4 -12 -4 -37 0 -56 5 -29 10 -34 33 -34 35 0 52 17 52
51 0 21 -7 30 -32 40 -18 7 -36 14 -40 16 -3 2 -9 -6 -13 -17z"/>
<path d="M2310 516 c0 -13 7 -26 15 -29 11 -5 12 -1 5 18 -7 19 -6 23 5 18 8
-3 15 0 15 6 0 6 -9 11 -20 11 -14 0 -20 -7 -20 -24z"/>
<path d="M1045 518 c-4 -9 -1 -26 5 -38 6 -12 9 -25 5 -28 -3 -3 -8 4 -12 16
-8 32 -23 27 -23 -8 0 -16 1 -30 3 -30 1 0 19 6 41 14 25 8 34 16 26 21 -6 4
-18 21 -25 39 -11 25 -15 28 -20 14z"/>
<path d="M2224 517 c-3 -8 -4 -30 -2 -49 2 -25 8 -34 25 -36 21 -3 22 -1 12
27 -6 17 -14 29 -18 27 -4 -3 -7 4 -7 14 0 27 15 13 37 -34 l18 -41 -2 50 c-2
47 -4 50 -30 53 -17 2 -29 -2 -33 -11z"/>
<path d="M856 472 c3 -16 1 -39 -5 -51 -9 -17 -9 -21 3 -21 28 0 36 69 11 90
-13 11 -14 8 -9 -18z"/>
<path d="M970 490 c0 -5 7 -10 15 -10 8 0 15 5 15 10 0 6 -7 10 -15 10 -8 0
-15 -4 -15 -10z"/>
<path d="M929 483 c-17 -4 -54 -83 -39 -83 15 0 30 28 24 44 -4 11 -1 16 14
16 11 0 22 7 26 15 5 15 3 16 -25 8z"/>
<path d="M2317 463 c-16 -15 -5 -39 23 -50 17 -6 30 -7 30 -2 0 5 -4 9 -10 9
-5 0 -10 11 -10 25 0 24 -18 34 -33 18z"/>
<path d="M2398 456 c-19 -14 -25 -56 -8 -56 6 0 10 5 10 10 0 6 16 18 35 27
19 9 32 20 29 25 -8 12 -47 9 -66 -6z"/>
<path d="M970 446 c0 -21 20 -30 33 -16 9 10 8 12 -7 6 -14 -5 -17 -2 -12 9 3
8 1 15 -4 15 -6 0 -10 -6 -10 -14z"/>
<path d="M1126 431 c-10 -11 -20 -43 -23 -73 -5 -49 -3 -56 18 -70 l24 -15 0
66 c0 36 4 76 8 89 10 27 -4 29 -27 3z"/>
<path d="M1083 432 c-17 -11 -34 -62 -28 -82 11 -36 30 -29 32 12 2 21 7 47
13 58 11 21 4 25 -17 12z"/>
<path d="M2455 428 c-38 -21 -65 -52 -65 -74 l0 -23 36 24 c20 14 54 30 75 36
l38 12 -24 18 c-27 22 -33 22 -60 7z"/>
<path d="M1024 405 c-6 -14 3 -52 10 -44 2 2 6 16 10 32 7 29 -10 39 -20 12z"/>
<path d="M2242 409 c2 -6 8 -10 13 -10 5 0 11 4 13 10 2 6 -4 11 -13 11 -9 0
-15 -5 -13 -11z"/>
<path d="M985 400 c3 -5 1 -10 -4 -10 -6 0 -11 -7 -11 -15 0 -8 5 -15 10 -15
6 0 10 4 10 9 0 5 3 16 6 25 3 9 1 16 -6 16 -6 0 -8 -4 -5 -10z"/>
<path d="M2272 390 c-11 -19 -10 -20 26 -20 21 0 48 -7 60 -16 33 -23 30 8 -4
35 -34 26 -66 27 -82 1z"/>
<path d="M930 394 c0 -3 7 -12 15 -20 16 -17 18 -14 9 10 -6 15 -24 23 -24 10z"/>
<path d="M902 370 c14 -22 24 -19 15 5 -4 8 -11 15 -17 15 -6 0 -6 -7 2 -20z"/>
<path d="M704 371 c9 -13 66 -44 72 -38 7 6 -29 34 -55 42 -16 5 -21 4 -17 -4z"/>
<path d="M793 350 c42 -37 63 -40 46 -7 -15 28 -28 37 -57 37 -21 0 -20 -2 11
-30z"/>
<path d="M858 345 c19 -39 42 -46 42 -12 0 27 -17 47 -42 47 -17 0 -17 -2 0
-35z"/>
<path d="M985 339 c-11 -16 -2 -17 25 -2 24 12 24 13 3 13 -12 0 -25 -5 -28
-11z"/>
<path d="M1016 322 c-9 -16 10 -31 32 -25 26 6 29 18 6 27 -21 8 -32 8 -38 -2z"/>
<path d="M838 265 c3 -20 7 -23 18 -14 20 16 17 39 -5 39 -14 0 -17 -6 -13
-25z"/>
<path d="M913 280 c16 -5 35 -14 43 -21 11 -9 14 -8 14 10 0 18 -6 21 -42 20
-40 -1 -41 -1 -15 -9z"/>
<path d="M980 268 c0 -20 1 -21 20 -3 11 10 20 20 20 22 0 1 -9 3 -20 3 -14 0
-20 -7 -20 -22z"/>
<path d="M1020 263 c-28 -23 -32 -31 -27 -64 3 -20 1 -43 -4 -50 -7 -11 -9
-11 -9 -1 0 29 -48 62 -89 62 -33 0 -43 -5 -61 -31 -28 -38 -21 -46 14 -18 38
30 72 27 110 -10 l32 -31 35 31 c56 51 84 61 147 54 40 -4 51 -2 36 4 -12 5
-25 14 -29 20 -11 19 -59 11 -114 -19 -30 -17 -57 -28 -59 -25 -13 13 80 65
118 65 l25 1 -24 19 c-32 27 -64 25 -101 -7z"/>
<path d="M877 252 c-23 -25 -21 -30 8 -24 14 2 39 -4 58 -16 l34 -19 -5 24
c-3 17 -16 30 -38 39 -41 17 -38 18 -57 -4z"/>
</g>
</svg>
